<?xml version="1.0" standalone="no"?>
<!DOCTYPE svg PUBLIC "-//W3C//DTD SVG 20010904//EN"
 "http://www.w3.org/TR/2001/REC-SVG-20010904/DTD/svg10.dtd">
<svg version="1.0" xmlns="http://www.w3.org/2000/svg"
 width="434.000000pt" height="172.000000pt" viewBox="0 0 434.000000 172.000000"
 preserveAspectRatio="xMidYMid meet">

<g transform="translate(0.000000,172.000000) scale(0.100000,-0.100000)"
fill="#000000" stroke="none">
<path d="M273 1500 c-46 -27 -66 -72 -61 -132 12 -116 143 -165 233 -87 54 48
63 109 25 178 -30 58 -134 80 -197 41z"/>
<path d="M572 1492 c-9 -7 -12 -39 -10 -128 l3 -119 125 0 125 0 3 119 c2 89
-1 121 -10 128 -7 4 -60 8 -118 8 -58 0 -111 -4 -118 -8z"/>
<path d="M882 1368 l3 -123 125 0 125 0 0 120 0 120 -128 3 -128 3 3 -123z"/>
<path d="M242 1172 c-9 -6 -12 -38 -10 -123 l3 -114 128 -3 128 -3 -3 123 -3
123 -115 3 c-63 1 -121 -2 -128 -6z"/>
<path d="M567 1174 c-4 -4 -7 -61 -7 -126 l0 -119 128 3 127 3 0 120 0 120
-121 3 c-66 1 -123 -1 -127 -4z"/>
<path d="M234 847 c-2 -7 -3 -62 -2 -123 l3 -109 128 -3 127 -3 0 126 0 125
-125 0 c-95 0 -127 -3 -131 -13z"/>
<path d="M560 735 l0 -126 128 3 127 3 0 120 0 120 -127 3 -128 3 0 -126z"/>
<path d="M880 735 l0 -126 128 3 127 3 0 120 0 120 -127 3 -128 3 0 -126z"/>
<path d="M1378 778 c-3 -24 -3 -69 0 -101 4 -48 8 -57 24 -57 17 0 19 7 16 97
-2 81 -6 98 -19 101 -12 2 -17 -7 -21 -40z"/>
<path d="M1470 720 c0 -93 1 -100 20 -100 17 0 19 8 22 71 l3 72 40 -71 c34
-61 44 -72 68 -72 l27 0 0 100 c0 82 -3 100 -15 100 -12 0 -15 -14 -15 -70 0
-38 -4 -70 -8 -70 -5 0 -26 31 -48 70 -33 60 -43 70 -66 70 l-28 0 0 -100z"/>
<path d="M1716 804 c-19 -19 -21 -59 -3 -74 6 -6 27 -20 45 -31 46 -27 36 -44
-22 -42 -39 1 -47 -2 -44 -15 2 -13 16 -18 55 -20 45 -3 54 0 67 20 22 33 10
62 -35 88 -52 29 -50 56 4 53 26 -2 37 2 37 11 0 29 -78 36 -104 10z"/>
<path d="M1850 806 c0 -8 10 -16 23 -18 20 -3 22 -9 25 -85 3 -75 5 -83 22
-83 18 0 20 7 20 79 l0 79 30 7 c17 4 30 13 30 21 0 11 -17 14 -75 14 -58 0
-75 -3 -75 -14z"/>
<path d="M2040 720 c0 -93 1 -100 20 -100 19 0 20 7 20 100 0 93 -1 100 -20
100 -19 0 -20 -7 -20 -100z"/>
<path d="M2112 803 c2 -10 10 -18 18 -19 8 -1 21 -2 28 -2 8 -2 12 -25 12 -82
0 -73 2 -80 20 -80 18 0 20 7 20 80 0 81 3 87 43 81 4 0 7 8 7 19 0 18 -7 20
-76 20 -66 0 -75 -2 -72 -17z"/>
<path d="M2300 740 c0 -67 3 -83 20 -100 31 -31 93 -30 125 1 27 27 36 165 11
175 -26 10 -31 -2 -36 -84 -5 -76 -5 -77 -34 -80 -39 -5 -46 10 -46 96 0 65
-2 72 -20 72 -18 0 -20 -7 -20 -80z"/>
<path d="M2500 806 c0 -8 14 -17 30 -21 l30 -7 0 -79 c0 -72 2 -79 20 -79 18
0 20 7 20 80 0 79 0 80 25 80 18 0 25 5 25 20 0 18 -7 20 -75 20 -58 0 -75 -3
-75 -14z"/>
<path d="M2723 808 c-30 -15 -47 -60 -40 -111 7 -54 35 -77 94 -77 64 0 93 32
93 100 0 41 -5 56 -25 75 -26 27 -81 33 -122 13z m91 -40 c34 -48 14 -118 -34
-118 -54 0 -81 79 -40 120 26 26 55 25 74 -2z"/>
<path d="M2962 718 c2 -84 6 -103 18 -103 10 0 17 13 20 40 5 37 8 40 38 43
46 5 43 32 -3 32 -31 0 -35 3 -35 25 0 22 4 25 35 25 28 0 35 4 35 20 0 18 -7
20 -55 20 l-56 0 3 -102z"/>
<path d="M3120 718 l0 -103 55 -2 c49 -2 55 0 55 17 0 16 -7 20 -35 20 -31 0
-35 3 -35 25 0 22 4 25 35 25 28 0 35 4 35 20 0 16 -7 20 -35 20 -28 0 -35 4
-35 20 0 16 7 20 35 20 28 0 35 4 35 20 0 18 -7 20 -55 20 l-55 0 0 -102z"/>
<path d="M3288 814 c-5 -4 -8 -49 -8 -100 0 -82 2 -93 19 -99 26 -8 99 10 122
30 39 36 33 125 -10 152 -24 15 -113 27 -123 17z m103 -50 c7 -9 13 -31 13
-49 0 -43 -19 -65 -55 -65 -29 0 -29 0 -29 65 0 65 0 65 29 65 16 0 35 -7 42
-16z"/>
<path d="M3498 808 c-6 -16 0 -177 7 -188 2 -4 22 -6 42 -5 21 2 44 4 51 4 6
1 12 8 12 16 0 10 -11 15 -35 15 -30 0 -35 3 -35 24 0 21 6 25 33 28 20 2 32
8 32 18 0 10 -12 16 -32 18 -25 2 -33 8 -33 23 0 15 7 19 35 19 28 0 35 4 35
20 0 18 -7 20 -54 20 -34 0 -56 -5 -58 -12z"/>
<path d="M3660 716 c0 -58 2 -106 4 -106 23 0 36 17 36 46 0 46 21 44 53 -4
14 -21 32 -39 41 -39 21 0 20 8 -8 49 -23 34 -23 35 -5 57 40 49 12 88 -70 98
l-51 6 0 -107z m94 47 c8 -19 0 -28 -31 -38 -20 -6 -23 -3 -23 24 0 26 4 31
24 31 13 0 27 -8 30 -17z"/>
<path d="M3895 810 c-7 -12 -65 -181 -65 -190 0 -17 33 -4 43 17 8 18 18 23
49 23 32 0 40 -4 48 -26 7 -18 15 -24 26 -20 9 3 17 6 19 6 6 0 -57 173 -68
188 -11 15 -43 16 -52 2z m54 -102 c1 -5 -11 -8 -25 -8 -24 0 -25 2 -19 33 11
50 18 54 31 16 7 -18 13 -37 13 -41z"/>
<path d="M4054 807 c-3 -8 -4 -54 -2 -103 l3 -89 52 -1 c28 -1 57 2 63 6 22
14 0 30 -41 30 l-39 0 0 85 c0 70 -3 85 -15 85 -9 0 -18 -6 -21 -13z"/>
<path d="M237 533 c-4 -3 -7 -57 -7 -119 0 -134 -10 -126 150 -122 l105 3 3
123 3 122 -124 0 c-68 0 -127 -3 -130 -7z"/>
<path d="M562 418 l3 -123 114 -3 c76 -2 118 1 127 9 11 9 14 37 12 123 l-3
111 -128 3 -128 3 3 -123z"/>
<path d="M2660 440 c0 -37 -2 -40 -19 -30 -50 26 -91 -7 -91 -73 0 -63 44 -96
90 -67 9 5 19 5 27 -2 10 -8 13 11 13 101 0 67 -4 111 -10 111 -5 0 -10 -18
-10 -40z m-12 -52 c16 -16 16 -80 0 -96 -7 -7 -21 -12 -33 -12 -31 0 -45 19
-45 60 0 41 14 60 45 60 12 0 26 -5 33 -12z"/>
<path d="M3080 440 c0 -37 -2 -40 -20 -30 -25 14 -68 3 -80 -20 -37 -69 22
-157 80 -120 9 5 19 5 27 -2 10 -8 13 11 13 101 0 67 -4 111 -10 111 -5 0 -10
-18 -10 -40z m-12 -52 c16 -16 16 -80 0 -96 -7 -7 -21 -12 -33 -12 -12 0 -26
5 -33 12 -15 15 -16 63 -2 89 12 21 50 25 68 7z"/>
<path d="M3757 473 c-11 -11 -8 -213 3 -213 6 0 10 43 10 110 0 110 -1 116
-13 103z"/>
<path d="M1550 455 c0 -8 5 -15 10 -15 6 0 10 7 10 15 0 8 -4 15 -10 15 -5 0
-10 -7 -10 -15z"/>
<path d="M1919 455 c-52 -28 -64 -125 -21 -167 21 -21 79 -33 116 -24 24 6 26
11 26 56 l0 50 -35 0 c-19 0 -35 -4 -35 -10 0 -5 11 -10 25 -10 22 0 25 -4 25
-35 0 -34 -1 -35 -39 -35 -59 0 -86 27 -86 85 0 60 29 87 89 85 56 -2 65 0 41
10 -30 13 -77 11 -106 -5z"/>
<path d="M3420 450 c-35 -35 -20 -67 46 -95 68 -28 52 -79 -23 -73 -43 3 -57
-5 -27 -16 32 -12 74 -6 95 15 32 32 21 60 -33 89 -26 14 -50 31 -53 39 -10
25 16 43 57 39 39 -4 51 5 22 16 -30 12 -64 6 -84 -14z"/>
<path d="M1370 360 c0 -99 16 -141 22 -57 2 34 7 43 24 45 16 2 28 -8 48 -42
15 -26 31 -46 36 -46 15 0 12 8 -15 48 -25 36 -25 36 -5 57 45 48 15 95 -61
95 l-49 0 0 -100z m102 67 c20 -31 0 -58 -43 -60 -30 -2 -34 1 -37 26 -6 48 4
60 40 53 18 -3 36 -12 40 -19z"/>
<path d="M1654 410 c-12 -5 -26 -22 -32 -38 -27 -78 41 -142 105 -97 42 29 33
118 -14 136 -28 11 -31 11 -59 -1z m64 -22 c7 -7 12 -28 12 -48 0 -41 -14 -60
-45 -60 -31 0 -45 19 -45 60 0 41 14 60 45 60 12 0 26 -5 33 -12z"/>
<path d="M2238 413 c-32 -8 -19 -20 20 -19 31 1 37 -2 40 -21 3 -20 -1 -23
-32 -23 -40 0 -68 -23 -64 -53 5 -31 32 -44 67 -30 21 8 32 8 40 0 8 -8 11 9
11 61 0 60 -3 73 -19 82 -20 10 -33 11 -63 3z m62 -91 c0 -25 -19 -42 -47 -42
-31 0 -42 29 -18 46 28 20 65 18 65 -4z"/>
<path d="M2770 413 c-43 -15 -56 -97 -20 -133 21 -21 65 -26 90 -10 11 7 4 10
-25 10 -44 0 -65 14 -65 42 0 15 9 18 54 18 52 0 53 1 48 25 -7 40 -45 61 -82
48z m58 -40 c3 -21 -1 -23 -37 -23 -27 0 -41 4 -41 13 0 41 72 50 78 10z"/>
<path d="M3176 399 c-51 -40 -23 -139 40 -139 35 0 74 42 74 80 0 35 -38 80
-68 80 -11 0 -31 -9 -46 -21z m71 -7 c18 -11 25 -55 14 -85 -8 -21 -17 -27
-40 -27 -32 0 -51 22 -51 60 0 49 40 76 77 52z"/>
<path d="M1550 335 c0 -43 4 -75 10 -75 6 0 10 32 10 75 0 43 -4 75 -10 75 -6
0 -10 -32 -10 -75z"/>
<path d="M2090 335 c0 -43 4 -75 10 -75 6 0 10 20 10 44 0 60 8 76 44 92 30
13 30 13 6 14 -15 0 -31 -5 -38 -12 -9 -9 -12 -9 -12 0 0 7 -4 12 -10 12 -6 0
-10 -32 -10 -75z"/>
<path d="M2372 335 c4 -84 21 -89 28 -9 6 64 26 88 58 68 12 -8 18 -27 20 -73
4 -81 22 -79 22 3 0 77 -9 87 -79 84 l-52 -2 3 -71z"/>
<path d="M3570 351 c0 -82 33 -111 91 -81 13 7 19 7 19 0 0 -5 5 -10 10 -10 6
0 10 32 10 75 0 43 -4 75 -10 75 -5 0 -10 -21 -10 -46 0 -61 -14 -84 -49 -84
-34 0 -41 14 -41 81 0 27 -4 49 -10 49 -6 0 -10 -26 -10 -59z"/>
</g>
</svg>
